<svg xmlns="http://www.w3.org/2000/svg" viewBox="0 0 23 20"><g opacity=".4" fill="#fff"><path d="M8.493 12.576c1.463 0 2.74-.02 4.014.004 1.322.028 2.231.946 2.195 2.133-.016.473-.17.717-.708.713-4.11-.016-8.217-.004-12.328-.024-1.04-.004-1.682-.605-1.666-1.447.012-.806.692-1.367 1.706-1.379.906-.012 1.815-.032 2.72 0 .518.02.85-.164 1.1-.6a775.913 775.913 0 013.994-6.85c.218-.373.17-.658-.012-1.027-.376-.75-1.035-1.334-1.237-2.18-.198-.822.044-1.491.63-1.76.776-.348 1.455-.124 1.985.662.174.26.335.533.525.841.38-.204.461-.593.667-.873.55-.758 1.322-.998 1.993-.593.703.424.914 1.194.445 2.012-1.718 2.994-3.468 5.971-5.207 8.953-.242.417-.477.826-.816 1.415z"></path><path d="M13.61 5.45c.805 1.37 1.56 2.661 2.312 3.956.558.958 1.112 1.916 1.65 2.882.161.292.412.284.683.284.986 0 1.972-.012 2.959.008 1.07.024 1.774.622 1.746 1.447-.024.826-.68 1.355-1.726 1.379-.53.012-1.06.004-1.775.004.457.798.845 1.475 1.233 2.148.23.397.42.806.332 1.275-.097.5-.392.85-.882 1.042-.529.204-1.002.1-1.414-.249a2.147 2.147 0 01-.449-.553c-1.783-3.018-3.65-5.992-5.271-9.098-.792-1.499-.574-3.299.602-4.525zM1.888 18.88c.049-1.25.683-2.003 1.261-2.72.457-.566 2.292-.085 2.656.585.13.24 0 .404-.101.58-.38.662-.72 1.351-1.156 1.973-.368.52-.918.845-1.593.617-.594-.192-1.156-.477-1.067-1.034z"></path></g></svg>