<svg viewBox="0 0 21 24" xmlns="http://www.w3.org/2000/svg"><path d="M19.044.024H1.933C.546.024.034.53.034 1.9v16.54c0 .155.006.299.02.432.032.3.038.59.32.92.027.032.314.243.314.243.155.075.26.13.435.2l8.426 3.487c.437.198.62.275.938.269h.002c.318.006.501-.071.938-.27l8.426-3.486c.175-.07.28-.125.435-.2 0 0 .288-.211.315-.243.282-.33.288-.62.32-.92.013-.133.02-.277.02-.432V1.9c0-1.37-.512-1.876-1.9-1.876zm-1.146 16.628l-.004.038-.004.042-.008.038-.011.039-.008.034-.012.038-.015.034-.015.03-.016.035-.019.03-.02.031-.022.03-.02.031-.022.027-.027.027-.023.023-.031.026-.027.023-.031.023-.03.019-.031.023-.035.019-.035.015-.034.02-.039.014-.038.016-.039.011-.038.012-.035.011-.038.008-.035.007-.034.008-.039.008-.038.003-.035.004-.038.004-.043.004-.038.004h-.161l-.039-.004h-.042l-.039-.004-.038-.004-.042-.004-.039-.007-.038-.004-.039-.008-.038-.007-.039-.008-.038-.008-.039-.011-.034-.008-.039-.011-.038-.012-.035-.015-.038-.011-.035-.012-.038-.015-.035-.015-.034-.015-.035-.02-.035-.015-.034-.019-.03-.019-.036-.019-.03-.019-.031-.019-.03-.023-.031-.023-.031-.023-.031-.022-.027-.023-.03-.027.022-.03.027-.027.023-.03.027-.031.023-.027.023-.03.027-.031.023-.027.027-.03.023-.027.027-.03.023-.031.023-.027.027-.03.023-.03.027-.028.023-.03.031.023.035.023.03.023.035.023.031.019.035.022.03.02.035.015.03.019.035.015.035.015.034.016.035.011.035.015.038.012.038.011.035.012.039.007.038.008.038.008.043.003.038.008h.039l.042.004h.084l.043-.004.038-.008.035-.007.034-.008.031-.011.027-.016.031-.022.023-.027.015-.03.012-.035.004-.038v-.008l-.004-.046-.015-.038-.02-.026-.027-.023-.03-.023-.031-.015-.035-.016-.038-.015-.046-.019-.027-.008-.03-.007-.036-.012-.034-.007-.039-.012-.038-.007-.042-.012-.039-.008-.042-.011-.039-.008-.038-.011-.039-.008-.038-.011-.035-.012-.038-.007-.035-.012-.034-.011-.035-.012-.042-.015-.039-.015-.038-.015-.039-.016-.034-.019-.038-.019-.031-.019-.035-.019-.03-.023-.031-.019-.027-.023-.027-.026-.027-.027-.023-.027-.023-.027-.02-.026-.019-.03-.019-.035-.015-.027-.012-.03-.011-.034-.012-.031-.008-.038-.007-.034-.004-.039-.004-.038-.004-.042v-.087l.004-.039.004-.034.004-.038.007-.034.008-.035.012-.034.007-.034.016-.035.015-.034.015-.034.02-.035.019-.034.023-.03.023-.031.027-.03.027-.027.027-.03.03-.028.027-.019.031-.023.031-.022.03-.02.035-.019.035-.015.034-.019.035-.015.039-.012.038-.015.035-.011.03-.008.035-.008.035-.007.038-.008.035-.008.038-.003.039-.004.038-.004.038-.004h.166l.042.004.042.004h.039l.042.004.039.007.042.004.038.008.035.007.038.008.039.008.034.007.039.012.034.011.035.008.039.015.034.012.035.015.034.015.039.015.034.02.031.015.035.019.034.019.031.019.035.023.03.019.031.023.031.023.03.022-.022.031-.02.03-.023.031-.023.03-.023.035-.019.03-.023.031-.023.03-.02.031-.022.03-.024.031-.019.03-.023.035-.023.03-.023.03-.02.031-.022.03-.031-.022-.035-.019-.03-.02-.031-.022-.035-.015-.03-.02-.035-.015-.03-.015-.036-.015-.03-.015-.035-.012-.03-.015-.043-.011-.038-.012-.039-.011-.038-.008-.039-.008-.038-.007-.038-.004-.04-.004-.034-.004h-.083l-.042.008-.039.008-.035.007-.03.015-.027.016-.035.03-.023.035-.015.034-.004.038v.008l.004.05.019.041.015.023.027.027.035.019.03.019.039.015.042.016.047.015.03.007.03.012.036.007.034.012.039.008.042.011.042.011.043.012.042.007.038.012.042.011.04.008.038.011.038.012.034.011.039.012.035.011.034.012.043.015.038.019.038.015.039.02.035.018.034.02.03.018.032.023.03.02.031.026.03.027.028.03.027.027.023.03.023.035.019.03.02.035.015.03.011.034.012.035.007.034.008.038.008.039.004.038.003.042v.091l-.003.042zm-2.697.763h-2.203v-2.777h2.222v.63h-1.488v.452h1.338v.592h-1.338v.474h1.508v.629h-.04zm-2.809 0h-.704v-1.642l-.019.03-.023.035-.02.03-.022.031-.02.034-.023.03-.019.031-.019.035-.023.03-.02.031-.022.03-.02.035-.023.03-.019.031-.019.034-.023.031-.02.03-.022.035-.02.03-.023.031-.019.035-.02.03-.022.03-.02.035-.022.03-.02.031-.023.03-.019.035-.02.03-.022.031-.02.035-.023.03-.019.03-.023.035-.02.03h-.014l-.023-.033-.02-.031-.023-.035-.02-.03-.022-.034-.02-.031-.022-.035-.02-.03-.023-.034-.019-.03-.023-.035-.02-.031-.022-.034-.02-.03-.022-.035-.02-.03-.023-.035-.023-.03-.02-.035-.022-.03-.02-.035-.022-.03-.02-.035-.023-.03-.019-.035-.023-.03-.02-.035-.022-.03-.02-.035-.023-.03-.019-.035-.023-.03-.02-.035-.022-.03v1.634h-.731v-2.777h.789l.019.03.019.035.023.03.02.034.018.031.02.034.019.03.023.035.02.03.018.031.02.034.019.03.023.035.02.03.018.035.02.03.023.03.019.035.019.03.02.035.018.03.024.034.019.03.019.035.02.03.018.03.024.035.019.03.019.035.02.03.018.035.024.03.019.034.019.03.02-.03.019-.034.022-.03.02-.035.019-.03.02-.034.022-.03.02-.035.019-.03.019-.03.023-.035.02-.03.018-.035.02-.03.023-.035.019-.03.02-.034.018-.03.02-.031.023-.034.019-.031.02-.034.018-.03.023-.035.02-.03.019-.031.02-.034.022-.03.02-.035.018-.03.02-.035.023-.03.02-.034.018-.031h.788v2.777h-.038zM7.931 16.27l-.012-.035-.015-.038-.015-.034-.012-.035-.015-.034-.015-.038-.012-.035-.016-.034-.015-.035-.011-.034-.016-.038-.011-.035-.016-.034-.015-.035-.012-.034-.015-.038-.015-.035-.012-.034-.015-.035-.016-.038-.011-.034-.016-.035-.015.035-.011.034-.016.038-.015.035-.012.034-.015.035-.016.038-.015.034-.011.035-.016.034-.015.035-.012.038-.015.034-.015.035-.012.034-.015.035-.016.038-.015.034-.012.035-.015.034-.015.038-.012.035-.015.034h.649l-.015-.034zm1.207 1.144h-.753l-.016-.034-.011-.035-.016-.034-.015-.038-.011-.034-.016-.035-.015-.034-.012-.034-.015-.035-.016-.034-.011-.034-.015-.039-.016-.034-.011-.034-.016-.035H7.07l-.015.035-.012.034-.015.034-.016.039-.011.034-.016.034-.015.035-.012.034-.015.034-.015.035-.012.034-.015.038-.016.034-.011.035-.016.034h-.776l.015-.034.015-.035.016-.034.015-.038.012-.034.015-.035.016-.034.015-.034.015-.035.016-.038.015-.034.015-.035.012-.034.015-.034.016-.035.015-.038.016-.034.015-.034.015-.035.016-.034.011-.034.015-.039.016-.034.015-.034.016-.035.015-.034.016-.034.015-.038.011-.035.016-.034.015-.034.015-.035.016-.034.015-.038.016-.034.015-.035.012-.034.015-.034.015-.035.016-.038.015-.034.015-.035.016-.034.015-.034.012-.035.015-.034.016-.038.015-.034.015-.035.016-.034.015-.034.015-.035.012-.038.015-.034.016-.034.015-.035.015-.034.016-.034.015-.039.016-.034.011-.034.016-.035.015-.034.015-.034.016-.038.015-.035.015-.034.016-.034.011-.035.016-.034.015-.038.016-.035.015-.034.015-.034.016-.035.015-.034.012-.038.015-.034.015-.035.016-.034h.711l.015.034.016.035.015.034.015.038.012.034.015.035.016.034.015.034.016.035.015.038.015.034.016.035.011.034.016.034.015.035.015.038.016.034.015.034.016.035.015.034.011.034.016.039.015.034.015.034.016.035.015.034.016.034.015.038.012.035.015.034.015.034.016.035.015.034.015.038.016.034.015.035.012.034.015.034.016.035.015.034.015.038.016.035.015.034.015.034.012.035.015.034.016.038.015.034.015.035.016.034.015.034.016.035.011.038.015.034.016.034.015.035.015.034.016.034.015.039.016.034.011.034.016.035.015.034.015.034.016.038.015.035.016.034.015.034.011.035.016.034.015.038.016.035.015.034.015.034.016.035.015.034.012.038.015.034.015.035.016.034h-.039zM5.77 17.06l-.03.023-.028.02-.03.022-.031.02-.03.022-.032.02-.03.018-.035.02-.035.018-.034.02-.035.015-.034.019-.039.015-.034.015-.039.015-.034.016-.035.011-.035.012-.034.011-.039.011-.034.012-.039.008-.034.007-.039.008-.038.007-.039.004-.042.004-.038.004-.043.004-.038.004-.043.003h-.165l-.038-.003-.043-.004-.038-.004-.038-.004-.039-.004-.038-.007-.039-.008-.034-.008-.039-.007-.035-.012-.038-.007-.035-.012-.034-.015-.035-.012-.038-.015-.035-.015-.034-.015-.035-.016-.035-.019-.03-.018-.035-.02-.03-.019-.031-.019-.031-.023-.031-.022-.03-.023-.028-.023-.027-.023-.027-.027-.026-.023-.027-.026-.027-.027-.023-.027-.023-.03-.024-.027-.019-.03-.023-.031-.019-.03-.02-.031-.018-.035-.02-.03-.015-.034-.015-.035-.016-.034-.015-.034-.012-.03-.015-.035-.008-.035-.011-.034-.008-.038-.012-.034-.007-.039-.004-.034-.008-.038-.004-.034-.004-.038-.003-.039-.004-.038v-.126l.004-.042v-.038l.003-.038.004-.042.008-.038.004-.038.008-.034.011-.038.008-.039.011-.034.012-.038.011-.034.016-.039.015-.034.016-.034.015-.035.015-.034.02-.034.019-.03.019-.031.02-.03.019-.031.022-.03.024-.031.023-.03.023-.028.027-.026.023-.027.027-.027.027-.026.026-.023.031-.027.027-.023.03-.023.032-.019.03-.023.031-.019.03-.019.035-.019.035-.02.035-.018.034-.015.035-.016.038-.019.031-.011.038-.012.035-.015.035-.008.034-.011.039-.008.034-.011.039-.008.038-.004.039-.007.038-.004.039-.004.038-.004.039-.003h.165l.042.003.043.004h.038l.038.004.043.008.034.003.039.008.038.008.035.007.034.008.035.008.035.011.034.008.03.011.036.012.034.015.035.015.034.015.035.02.035.015.03.019.035.019.03.019.035.019.031.023.03.019.032.023.03.023.031.026.03.023-.022.03-.027.028-.023.03-.027.03-.023.031-.023.027-.027.03-.023.03-.023.028-.027.03-.023.03-.027.031-.023.027-.023.03-.027.03-.023.031-.027.027-.023.03-.031-.022-.03-.027-.032-.019-.03-.023-.031-.019-.03-.02-.032-.018-.034-.02-.031-.014-.03-.016-.032-.011-.034-.012-.035-.011-.034-.008-.039-.007-.038-.008-.039-.004-.042-.004-.042-.003h-.081l-.038.003-.035.004-.038.008-.035.008-.035.01-.034.012-.035.016-.034.015-.031.019-.03.02-.032.018-.027.023-.027.023-.026.023-.024.026-.026.027-.024.03-.019.027-.019.031-.02.034-.018.03-.016.035-.011.034-.016.035-.011.038-.008.038-.008.034-.007.042-.004.038-.004.038v.088l.004.038.004.035.003.038.008.034.008.035.008.034.011.034.012.03.015.039.015.034.02.035.019.03.02.03.022.031.023.027.027.027.023.026.027.023.031.023.03.023.031.019.031.019.035.015.034.016.035.015.038.011.039.012.038.007.039.008.038.004.042.004h.089l.042-.004.043-.004.038-.004.038-.007.039-.008.038-.012.035-.007.034-.015.031-.016.035-.015.027-.015.03-.02v-.346h-.56v-.557h1.268v1.239l-.027.023zM4.534 8.355v2.77h1.759v1.273H3.119V3.21h3.147v1.273H4.534v2.6H6.2v1.273H4.534zm11.935.276h1.389v2.14c0 1.142-.569 1.706-1.72 1.706h-.7c-1.15 0-1.72-.564-1.72-1.707V4.837c0-1.142.57-1.707 1.72-1.707h.687c1.15 0 1.706.552 1.706 1.694V6.7h-1.388V4.902c0-.367-.172-.538-.53-.538h-.237c-.37 0-.543.17-.543.538v5.803c0 .368.172.538.543.538h.264c.357 0 .53-.17.53-.538V8.631zm-4.914 3.767v-9.19h1.415v9.19h-1.415zM9.502 7.292v-2.31c0-.368-.172-.539-.53-.539h-.581V7.83h.582c.357 0 .529-.17.529-.538zm-.304-4.083c1.15 0 1.719.564 1.719 1.707v2.441c0 1.142-.569 1.707-1.72 1.707h-.806v3.334H6.976v-9.19h2.222zM6.457 20.707h8.1l-4.134 1.347-3.966-1.347z" fill="#FFF" fill-rule="evenodd" opacity=".4"></path></svg>