<svg xmlns="http://www.w3.org/2000/svg"><path d="M3.13.136C2.081.769.02 3.183 0 3.816v1.049C0 6.193 1.219 7.36 2.325 7.36c1.33 0 2.436-1.122 2.436-2.454 0 1.332 1.07 2.454 2.399 2.454 1.328 0 2.363-1.122 2.363-2.454 0 1.332 1.137 2.454 2.465 2.454h.024c1.329 0 2.466-1.122 2.466-2.454 0 1.332 1.035 2.454 2.363 2.454 1.329 0 2.398-1.122 2.398-2.454 0 1.332 1.107 2.454 2.436 2.454C22.781 7.36 24 6.193 24 4.865V3.816c-.02-.633-2.083-3.047-3.13-3.68C17.619.02 15.36 0 12 0 8.638 0 4.054.054 3.128.136zm6.377 6.599a2.787 2.787 0 01-.468.613 2.751 2.751 0 01-3.899 0 2.679 2.679 0 01-.446-.601c-.126.227-.303.42-.484.602a2.76 2.76 0 01-1.95.81.836.836 0 01-.263-.053 41.906 41.906 0 00-.168 3.007v.004l-.006 1.19c.021 2.378-.23 7.707 1.03 9.016 1.952.465 5.545.676 9.15.677h.001c3.605-.001 7.199-.212 9.152-.676 1.26-1.31 1.008-6.638 1.029-9.016l-.006-1.19v-.003a42.072 42.072 0 00-.168-3.007.84.84 0 01-.264.053 2.76 2.76 0 01-1.951-.81 2.813 2.813 0 01-.485-.6V6.75c-.127.225-.265.42-.447.6a2.752 2.752 0 01-3.898 0 2.806 2.806 0 01-.468-.613 2.76 2.76 0 01-2.494 1.42v.001l-.08.002A2.76 2.76 0 019.51 6.738l-.002-.003zm-2.004 2.64h.002c.793.003 1.499 0 2.371.972.688-.073 1.406-.11 2.126-.109.72 0 1.438.037 2.126.11.874-.971 1.578-.969 2.372-.971h.002v-.001c.375 0 1.874 0 2.92 2.99l1.123 4.103c.832 3.052-.266 3.127-1.636 3.13-2.032-.077-3.157-1.581-3.157-3.084-1.124.188-2.437.282-3.748.282-1.313 0-2.625-.094-3.749-.282 0 1.503-1.125 3.006-3.156 3.083-1.37-.002-2.469-.077-1.636-3.128l1.122-4.103c1.045-2.99 2.545-2.99 2.92-2.99l-.002-.002zM12 11.725c-.002.003-2.139 2.002-2.523 2.713l1.4-.057v1.243c0 .058.56.034 1.123.008.562.027 1.124.05 1.124-.008V14.38l1.4.057C14.14 13.727 12 11.726 12 11.726v-.001z" fill="#FFF" opacity=".4"></path></svg>