<svg xmlns="http://www.w3.org/2000/svg" viewBox="0 0 28 22"><g opacity=".4" fill="#fff"><path d="M2.958 14.297l-.91.378c-1.365.621-2.073 1.27-2.047 1.837.075.838.96 1.459 2.578 1.918 2.098.595 4.222.73 6.421.378v-2.35l-1.744.702c-1.82.676-2.756.108-2.756.108-.278-.189-.404-.648.354-.945l.96-.378L9 14.729V12l-.809.297-5.233 2zM17 5.433v6.899c1.385.692 2.615.745 3.538.026.95-.692 1.462-1.89 1.462-3.702 0-1.89-.359-3.33-1.154-4.288-.718-1.012-2-1.864-3.897-2.53C14.589 1.038 12.589.346 11 0v20.642L15.282 22V4.847C15.256 3.81 17 3.89 17 5.433z"></path><path d="M27.994 15.54c-.027-.713-.882-1.267-2.404-1.768-1.71-.554-3.18-.818-4.782-.765-1.469.026-3.232.5-4.808 1.002v2.612l4.327-1.504s1.31-.475 2.431-.185c.855.211.802.686-.053.977l-.989.395L16 18.336V21l2.671-.95 6.411-2.242.748-.343c1.55-.554 2.244-1.16 2.164-1.926z"></path></g></svg>