<svg xmlns="http://www.w3.org/2000/svg" viewBox="0 0 22 22"><path fill="#FFF" d="M.028 10.277a21.629 21.629 0 00-.004-.008C.399 4.535 5.148 0 10.954 0c6.048 0 10.952 4.925 10.952 11s-4.904 11-10.953 11C6.015 22 1.84 18.719.473 14.208l4.147 1.719c.21.937.85 1.76 1.795 2.155a3.034 3.034 0 003.971-1.643c.167-.406.245-.832.234-1.257l3.835-2.752.094.001c2.295 0 4.16-1.879 4.16-4.186 0-2.308-1.865-4.185-4.16-4.185-2.294 0-4.16 1.877-4.16 4.185v.054l-2.68 3.91c-.434-.02-.87.057-1.282.228a2.976 2.976 0 00-.513.272L.028 10.276v.001zm9.718 5.892a2.342 2.342 0 01-3.065 1.27 2.334 2.334 0 01-1.206-1.156l1.354.564c.88.368 1.89-.051 2.256-.935a1.74 1.74 0 00-.929-2.27l-1.4-.582a2.331 2.331 0 012.993 1.305 2.355 2.355 0 01-.003 1.804zm4.803-5.135a2.784 2.784 0 01-2.771-2.789 2.784 2.784 0 012.771-2.788 2.784 2.784 0 012.773 2.788 2.784 2.784 0 01-2.773 2.789zm-2.077-2.793c0 1.157.933 2.094 2.082 2.094 1.15 0 2.082-.937 2.082-2.094a2.09 2.09 0 00-2.082-2.096 2.09 2.09 0 00-2.082 2.096z" opacity=".4"></path></svg>