<svg xmlns="http://www.w3.org/2000/svg" width="24" height="23" viewBox="0 0 24 23"><g fill="none" fill-rule="evenodd" opacity=".4"><rect width="23" height="22" x=".5" y=".5" stroke="#FFF" rx="2"></rect><path fill="#FFF" fill-rule="nonzero" d="M21.148 11.039c0 .56-.455 1.012-1.013 1.012h-4.348v-1.305h3.665a.39.39 0 00.39-.39V6.044a.39.39 0 00-.39-.39h-1.969a.39.39 0 00-.388.39v1.962c0 .216.174.39.388.39h1.573v1.305H16.8c-.56 0-1.014-.452-1.014-1.011V5.362c0-.559.453-1.012 1.014-1.012h3.334c.558 0 1.013.453 1.013 1.012v5.677zm-.004 7.57h-1.288v-3.987h-.905a.382.382 0 00-.383.384v3.602H17.28v-3.986h-.906a.383.383 0 00-.383.384v3.606h-1.288V14.33c0-.548.446-.995.999-.995h5.442v5.273zM13.73 9.7h-3.335c-.56 0-1.013-.452-1.013-1.011V5.362c0-.559.453-1.012 1.013-1.012h3.335c.558 0 1.012.453 1.012 1.012V8.69c0 .559-.454 1.011-1.012 1.011zm-.682-4.046h-1.97a.389.389 0 00-.39.39v1.961c0 .216.174.39.39.39h1.969a.385.385 0 00.385-.39V6.044a.385.385 0 00-.385-.39zm.624 11.957c0 .55-.447.996-.998.996H9.388a.997.997 0 01-.999-.996V14.33a.997.997 0 011-.995h3.284c.55 0 .998.446.998.995v3.28zm-1.67-2.99h-1.94a.383.383 0 00-.384.384v1.932c0 .211.171.385.384.385l.004-.003v.003h1.932v-.003l.004.003a.384.384 0 00.382-.385v-1.932a.382.382 0 00-.382-.384zm-3.665-3.583c0 .56-.455 1.012-1.014 1.012H2.975v-1.305H6.64a.389.389 0 00.389-.39V6.044a.389.389 0 00-.39-.39H4.67a.389.389 0 00-.388.39v1.962c0 .216.173.39.388.39h1.574v1.305H3.988c-.56 0-1.013-.452-1.013-1.011V5.362c0-.559.453-1.012 1.013-1.012h3.334c.56 0 1.014.453 1.014 1.012v5.677zm-.978 3.583H4.65a.383.383 0 00-.383.384v1.932c0 .212.17.386.383.386h2.708v1.288h-3.38v-.004c-.552 0-1-.446-1-.997v-3.28a.998.998 0 011-.995h3.38v1.286z"></path></g></svg>