<svg xmlns="http://www.w3.org/2000/svg" viewBox="0 0 22 22"><path fill="#FFF" d="M4.851 1.847l-.03.026c.062-.065.151-.135.21-.173C6.734.592 8.703 0 10.887 0c2.044 0 3.958.564 5.592 1.546.118.07.441.292.608.493v.001c-1.576-1.738-6.21 1.991-6.21 1.991-1.602-1.235-3.076-2.077-4.174-2.377-.917-.251-1.552-.041-1.853.193zM18.873 3.49c-.048-.053-.1-.103-.148-.158-.399-.437-.889-.543-1.33-.514-.403.126-2.26.795-4.549 2.956 0 0 2.577 2.506 4.155 5.067 1.576 2.561 2.519 4.574 1.94 7.368a10.845 10.845 0 002.831-7.323c0-2.855-1.099-5.454-2.899-7.396zm-3.932 8.445a75.408 75.408 0 00-3.113-3.274c-.3-.298-.617-.61-.95-.932 0 0-.502.502-1.156 1.162V8.89c-.836.844-1.92 1.946-2.521 2.589-1.071 1.143-4.14 4.733-4.313 6.746 0 0-.683-1.596.816-5.279.979-2.407 3.937-6.022 5.172-7.2 0 0-1.129-1.242-2.545-2.1l-.009-.002s-.016-.013-.041-.03c-.681-.405-1.425-.718-2.14-.76-.732.052-1.195.586-1.195.586a10.847 10.847 0 00-2.944 7.447c0 6.012 4.874 10.886 10.886 10.886 3.191 0 6.062-1.376 8.054-3.563 0-.003-.23-1.438-1.694-3.497-.344-.482-1.603-1.988-2.307-2.778z" opacity=".4"></path></svg>